<svg xmlns="http://www.w3.org/2000/svg" width="599.666" height="206.152" viewBox="0 0 599.666 206.152">
  <g id="Group_53" data-name="Group 53" transform="translate(-104.493 -56.554)">
    <g id="Sector_4" data-name="Sector 4" transform="translate(104.549 56.554)">
      <path id="Blue_Diagonal" data-name="Blue Diagonal" d="M208.3,130.922,156.752,56.554H104.563v74.368Z" transform="translate(-104.563 -56.554)" fill="#0090bb"/>
    </g>
    <g id="Construction" transform="translate(104.493 134.995)" style="isolation: isolate">
      <text id="AGRICULTURAL" transform="translate(0 15)" fill="#0090bb" font-size="14" font-family="SegoeUI, Segoe UI" letter-spacing="-0.048em" style="isolation: isolate"><tspan x="0" y="0">AGRICULTURAL</tspan></text>
    </g>
    <g id="Sector_4-2" data-name="Sector 4" transform="translate(230.612 56.554)">
      <path id="Blue_Diagonal-2" data-name="Blue Diagonal" d="M365.093,130.922,313.548,56.554H261.359v74.368Z" transform="translate(-261.359 -56.554)" fill="#0090bb"/>
    </g>
    <g id="Construction-2" data-name="Construction" transform="translate(230.555 134.995)" style="isolation: isolate">
      <text id="BULK_HANDLING" data-name="BULK HANDLING" transform="translate(0 15)" fill="#0090bb" font-size="14" font-family="SegoeUI, Segoe UI" letter-spacing="-0.048em" style="isolation: isolate"><tspan x="0" y="0">BULK HANDLING</tspan></text>
    </g>
    <g id="Sector_4-3" data-name="Sector 4" transform="translate(354.622 56.554)">
      <path id="Blue_Diagonal-3" data-name="Blue Diagonal" d="M519.337,130.922,467.792,56.554H415.6v74.368Z" transform="translate(-415.603 -56.554)" fill="#0090bb"/>
    </g>
    <g id="Construction-3" data-name="Construction" transform="translate(354.566 134.995)" style="isolation: isolate">
      <text id="CHEMICAL" transform="translate(0 15)" fill="#0090bb" font-size="14" font-family="SegoeUI, Segoe UI" letter-spacing="-0.048em" style="isolation: isolate"><tspan x="0" y="0">CHEMICAL</tspan></text>
    </g>
    <g id="Sector_4-4" data-name="Sector 4" transform="translate(478.756 56.554)">
      <path id="Blue_Diagonal-4" data-name="Blue Diagonal" d="M673.735,130.922,622.19,56.554H570v74.368Z" transform="translate(-570.001 -56.554)" fill="#0090bb"/>
    </g>
    <g id="Construction-4" data-name="Construction" transform="translate(478.7 134.995)" style="isolation: isolate">
      <text id="CONVEYOR" transform="translate(0 15)" fill="#0090bb" font-size="14" font-family="SegoeUI, Segoe UI" letter-spacing="-0.048em" style="isolation: isolate"><tspan x="0" y="0">CONVEYOR</tspan></text>
    </g>
    <g id="Group_46" data-name="Group 46" transform="translate(108.714 68.779)">
      <path id="Path_101" data-name="Path 101" d="M127.187,108.622a5.845,5.845,0,1,0,5.843,5.846A5.85,5.85,0,0,0,127.187,108.622Z" transform="translate(-112.017 -78.985)" fill="#fff"/>
      <path id="Path_102" data-name="Path 102" d="M124.911,97.027A15.17,15.17,0,1,0,140.085,112.2,15.185,15.185,0,0,0,124.911,97.027Zm0,23.711a8.544,8.544,0,1,1,8.542-8.543A8.552,8.552,0,0,1,124.913,120.738Z" transform="translate(-109.743 -76.712)" fill="#fff"/>
      <path id="Path_103" data-name="Path 103" d="M182.372,107.884a10.8,10.8,0,1,0,10.806,10.8A10.813,10.813,0,0,0,182.372,107.884Zm0,15.888a5.083,5.083,0,1,1,5.085-5.084A5.084,5.084,0,0,1,182.372,123.772Z" transform="translate(-121.862 -78.84)" fill="#fff"/>
      <path id="Path_104" data-name="Path 104" d="M162.138,101.832a26.918,26.918,0,0,0-10.826-5.024V95.437a27.991,27.991,0,0,1,11.922,5.507,12.956,12.956,0,0,1,12.073-1.709c-.145-3.386-.564-6.954-1.692-7.381a77.021,77.021,0,0,0-18.622-3.825V77.274c0-1.51.752-1.86.858-1.9a1.348,1.348,0,1,0-.733-2.6c-1.049.3-2.824,1.577-2.824,4.5V87.827c-.412-.023-.8-.038-1.189-.053l-3.156-13.581a1.35,1.35,0,0,0-1.08-1.023c-.65-.114-16.06-2.793-27.652-.46a1.349,1.349,0,1,0,.531,2.645c.161-.032.329-.055.49-.084L118.111,87.65c0,.026.006.051,0,.08h-.479c-2.55,0-3.058,1.644-3.058,1.644l-1.563,3.917,1.3.646A17.408,17.408,0,0,1,142.289,112.1h15.52c-.006-.178-.027-.354-.027-.535A13.061,13.061,0,0,1,162.138,101.832Zm5.151-9.46a.681.681,0,0,1,.876.382l1.094,2.789a.677.677,0,0,1-.382.874.7.7,0,0,1-.248.046.678.678,0,0,1-.627-.427l-1.1-2.789A.676.676,0,0,1,167.29,92.372Zm-3.18,0a.679.679,0,0,1,.875.382l1.1,2.789a.676.676,0,0,1-.382.874.7.7,0,0,1-.248.046.675.675,0,0,1-.628-.427l-1.094-2.789A.675.675,0,0,1,164.11,92.372ZM132.458,88.4a13.294,13.294,0,0,0-2.984-.669h-8.639l1.994-11.594h9.629Zm16.154,10.389-4.887-.006a17.731,17.731,0,0,0-8.57-9.267V76.136h10.474l2.982,12.836v9.816h0Z" transform="translate(-110.384 -71.759)" fill="#fff"/>
    </g>
    <path id="Path_105" data-name="Path 105" d="M330.142,93.893a2.277,2.277,0,0,0-.728-3.723L304.762,79.932a5.782,5.782,0,0,0-4.69.117L269.206,94.727a2.274,2.274,0,0,0-.624,3.673,2.27,2.27,0,0,0,0,3.233,2.271,2.271,0,0,0,0,3.238,2.258,2.258,0,0,0,0,3.228,2.273,2.273,0,0,0,.654,3.687L294.21,123.2a5.733,5.733,0,0,0,5.072-.134L329.6,107.221a2.271,2.271,0,0,0,.546-3.631,2.275,2.275,0,0,0,0-3.234,2.273,2.273,0,0,0,0-3.232,2.268,2.268,0,0,0,0-3.231Zm-1.255.777a.9.9,0,0,1,.072,1.638l-30.314,15.849a4.364,4.364,0,0,1-3.865.1L269.807,100.84a.905.905,0,0,1-.013-1.641l.1-.045,24.319,11.118a5.733,5.733,0,0,0,5.072-.134l29.6-15.473Zm0,3.233a.905.905,0,0,1,.072,1.638l-30.314,15.849a4.369,4.369,0,0,1-3.865.1l-24.974-11.418a.9.9,0,0,1-.013-1.64l.1-.045,24.319,11.118a5.733,5.733,0,0,0,5.072-.134l29.6-15.473Zm0,3.233a.905.905,0,0,1,.072,1.638l-30.314,15.849a4.372,4.372,0,0,1-3.865.1l-24.974-11.418a.9.9,0,0,1-.013-1.64l.1-.045,24.319,11.118a5.733,5.733,0,0,0,5.072-.134l29.595-15.472ZM269.8,95.967,300.662,81.29a4.4,4.4,0,0,1,3.573-.09l24.652,10.238a.9.9,0,0,1,.072,1.638l-30.314,15.849a4.369,4.369,0,0,1-3.865.1L269.807,97.607a.9.9,0,0,1-.012-1.64Zm59.165,10.039-30.314,15.848a4.366,4.366,0,0,1-3.865.1l-24.974-11.418a.9.9,0,0,1-.013-1.64l.1-.045,24.319,11.118a5.733,5.733,0,0,0,5.072-.134l29.6-15.473.01,0a.907.907,0,0,1,.072,1.639Z" transform="translate(-32.031 -4.496)" fill="#fff"/>
    <g id="Group_48" data-name="Group 48" transform="translate(370.822 66.478)">
      <g id="Group_47" data-name="Group 47" transform="translate(0 0)">
        <path id="Path_106" data-name="Path 106" d="M472.136,115.985a.122.122,0,0,0-.01-.058.9.9,0,0,0-.125-.3c-.01-.019-.029-.039-.039-.058a1.057,1.057,0,0,0-.2-.212l-.029-.029-.01-.01a.876.876,0,0,0-.3-.116c-.01,0-.019-.01-.039-.01-.4-.077-9.387-1.833-15.369-.125-5.374-4.592-15.639-.01-16.093.193a.963.963,0,0,0-.569.878,16.4,16.4,0,0,0,32.8,0A.845.845,0,0,0,472.136,115.985Zm-4.988.54c-3.028-1.323-9.1-1.183-9.1.048A35.077,35.077,0,0,1,467.148,116.525Zm-11.394,14.086a14.493,14.493,0,0,1-14.462-13.835c0-1.152-5.987,7.783,11.026,14.022,4.168,4.168,19.807-4.461,17.831-13.2A14.485,14.485,0,0,1,455.754,130.611Z" transform="translate(-436.459 -77.548)" fill="#fff"/>
        <path id="Path_107" data-name="Path 107" d="M462.767,89.8V78.439c1.833-.425,2.894-2.123,2.894-4.718a4.826,4.826,0,0,0-4.824-4.824H449.26a4.826,4.826,0,0,0-4.824,4.824c0,2.6,1.061,4.293,2.894,4.718V89.8a19.3,19.3,0,1,0,15.437,0Zm-7.718,35.051a17.364,17.364,0,0,1-6.4-33.507.965.965,0,0,0,.608-.9V77.58a.968.968,0,0,0-.965-.965c-.482,0-1.93,0-1.93-2.894a2.9,2.9,0,0,1,2.894-2.894h11.577a2.9,2.9,0,0,1,2.894,2.894c0,2.894-1.447,2.894-1.93,2.894a.968.968,0,0,0-.965.965V90.45a.965.965,0,0,0,.608.9,17.364,17.364,0,0,1-6.4,33.507Z" transform="translate(-435.753 -68.897)" fill="#fff"/>
      </g>
    </g>
    <g id="Group_49" data-name="Group 49" transform="translate(487.589 66.478)">
      <path id="Path_108" data-name="Path 108" d="M616.7,101.524a5.2,5.2,0,0,1,3.058-.321l1.838.742.006,0h0l2.622-6.488h0l.007-.017-.113-.023-1.661-.673a5.234,5.234,0,0,1-.156-8.793l1.829-.777,0,0h0L621.4,78.735v0h0l-.006-.014a1.018,1.018,0,0,0-.089.056l-1.659.7a5.239,5.239,0,0,1-6.331-6.114l.742-1.837,0,0h0L607.569,68.9h0l-.017-.007c-.009.039-.019.076-.027.115l-.671,1.659a5.242,5.242,0,0,1-8.8.154L597.275,69v0h0l-6.445,2.734h0l-.015.007q.027.045.056.087l.706,1.661a5.241,5.241,0,0,1-6.12,6.326l-1.836-.743a.006.006,0,0,1-.006,0l0,0h0l-2.622,6.487h0l0,.017a1.1,1.1,0,0,1,.111.027l1.662.669a5.241,5.241,0,0,1,.154,8.8l-1.827.772-.007,0h0l2.733,6.439h0l.006.018c.03-.018.06-.039.089-.056l1.661-.7a5.24,5.24,0,0,1,6.331,6.111l-.742,1.837,0,.007h0l6.491,2.619h0l.018.006c.007-.038.016-.076.024-.114l.673-1.656a5.234,5.234,0,0,1,6.413-2.089,5.179,5.179,0,0,1,2.39,1.935l.773,1.823,0,.007v0h0l6.444-2.733h0l.018-.007c-.021-.028-.039-.059-.06-.087l-.7-1.659A5.236,5.236,0,0,1,616.7,101.524Zm-10.786-3.235A8.455,8.455,0,1,1,610.4,87.2,8.464,8.464,0,0,1,605.916,98.289Z" transform="translate(-580.988 -68.897)" fill="#fff"/>
      <path id="Path_109" data-name="Path 109" d="M646.361,125.871V121.5h-2.482a8.645,8.645,0,0,0-.928-2.252l1.752-1.754-3.1-3.093-1.741,1.74a8.622,8.622,0,0,0-2.287-.955v-2.465H633.2v2.465a8.613,8.613,0,0,0-2.261.937l-1.745-1.743-3.1,3.1,1.743,1.743a8.648,8.648,0,0,0-.943,2.28H624.46v4.375h2.451a8.718,8.718,0,0,0,.948,2.266l-1.739,1.737,3.1,3.1,1.751-1.75a8.684,8.684,0,0,0,2.231.921V134.6h4.378v-2.465a8.771,8.771,0,0,0,2.259-.934l1.746,1.74,3.1-3.089-1.745-1.75a8.538,8.538,0,0,0,.932-2.234ZM635.39,126.9a3.235,3.235,0,1,1,3.235-3.235A3.236,3.236,0,0,1,635.39,126.9Z" transform="translate(-589.509 -77.486)" fill="#fff"/>
    </g>
    <g id="Sector_4-5" data-name="Sector 4" transform="translate(600.426 56.554)">
      <path id="Blue_Diagonal-5" data-name="Blue Diagonal" d="M825.068,130.922,773.523,56.554H721.334v74.368Z" transform="translate(-721.334 -56.554)" fill="#0090bb"/>
    </g>
    <g id="Construction-5" data-name="Construction" transform="translate(600.37 134.995)" style="isolation: isolate">
      <text id="ELECTRICAL" transform="translate(0 15)" fill="#0090bb" font-size="14" font-family="SegoeUI, Segoe UI" letter-spacing="-0.048em" style="isolation: isolate"><tspan x="0" y="0">ELECTRICAL</tspan></text>
    </g>
    <path id="Path_110" data-name="Path 110" d="M772.7,68.317,761.158,92.28l15.3,3.493A.834.834,0,0,1,776.8,97.2l-30.063,29.083c-.267.324-.753-.076-.578-.421L757.7,100.647,743.048,97.3a.833.833,0,0,1-.348-1.429l29.537-28.047C772.391,67.571,772.9,67.879,772.7,68.317Z" transform="translate(-125.042 -2.191)" fill="#fff"/>
    <g id="Sector_4-6" data-name="Sector 4" transform="translate(104.549 165.264)">
      <path id="Blue_Diagonal-6" data-name="Blue Diagonal" d="M208.3,266.136l-51.544-74.368H104.563v74.368Z" transform="translate(-104.563 -191.768)" fill="#0090bb"/>
    </g>
    <g id="Construction-6" data-name="Construction" transform="translate(104.493 243.706)" style="isolation: isolate">
      <text id="MOTORSPORT" transform="translate(0 15)" fill="#0090bb" font-size="14" font-family="SegoeUI, Segoe UI" letter-spacing="-0.048em" style="isolation: isolate"><tspan x="0" y="0">MOTORSPORT</tspan></text>
    </g>
    <g id="Sector_4-7" data-name="Sector 4" transform="translate(230.612 165.264)">
      <path id="Blue_Diagonal-7" data-name="Blue Diagonal" d="M365.093,266.136l-51.544-74.368H261.359v74.368Z" transform="translate(-261.359 -191.768)" fill="#0090bb"/>
    </g>
    <g id="Construction-7" data-name="Construction" transform="translate(230.555 243.706)" style="isolation: isolate">
      <text id="NUCLEAR" transform="translate(0 15)" fill="#0090bb" font-size="14" font-family="SegoeUI, Segoe UI" letter-spacing="-0.048em" style="isolation: isolate"><tspan x="0" y="0">NUCLEAR</tspan></text>
    </g>
    <g id="Sector_4-8" data-name="Sector 4" transform="translate(354.622 165.264)">
      <path id="Blue_Diagonal-8" data-name="Blue Diagonal" d="M519.337,266.136l-51.544-74.368H415.6v74.368Z" transform="translate(-415.603 -191.768)" fill="#0090bb"/>
    </g>
    <g id="Construction-8" data-name="Construction" transform="translate(354.566 243.706)" style="isolation: isolate">
      <text id="RENEWABLE" transform="translate(0 15)" fill="#0090bb" font-size="14" font-family="SegoeUI, Segoe UI" letter-spacing="-0.048em" style="isolation: isolate"><tspan x="0" y="0">RENEWABLE</tspan></text>
    </g>
    <g id="Sector_4-9" data-name="Sector 4" transform="translate(478.756 165.264)">
      <path id="Blue_Diagonal-9" data-name="Blue Diagonal" d="M673.735,266.136,622.19,191.768H570v74.368Z" transform="translate(-570.001 -191.768)" fill="#0090bb"/>
    </g>
    <g id="Construction-9" data-name="Construction" transform="translate(478.7 243.706)" style="isolation: isolate">
      <text id="TRANSPORT" transform="translate(0 15)" fill="#0090bb" font-size="14" font-family="SegoeUI, Segoe UI" letter-spacing="-0.048em" style="isolation: isolate"><tspan x="0" y="0">TRANSPORT</tspan></text>
    </g>
    <g id="Sector_4-10" data-name="Sector 4" transform="translate(600.426 165.264)">
      <path id="Blue_Diagonal-10" data-name="Blue Diagonal" d="M825.068,266.136l-51.544-74.368H721.334v74.368Z" transform="translate(-721.334 -191.768)" fill="#0090bb"/>
    </g>
    <g id="Construction-10" data-name="Construction" transform="translate(600.37 243.706)" style="isolation: isolate">
      <text id="WATER" transform="translate(0 15)" fill="#0090bb" font-size="14" font-family="SegoeUI, Segoe UI" letter-spacing="-0.048em" style="isolation: isolate"><tspan x="0" y="0">WATER</tspan></text>
    </g>
    <text transform="translate(403.216 248.217)" font-size="10" font-family="ArialMT, Arial"/>    <g id="Group_50" data-name="Group 50" transform="translate(112.792 190.003)">
      <path id="Path_111" data-name="Path 111" d="M157.583,222.538c4.259,0,6.9,6.048,8.688,9.37l2.214-1.448a2.452,2.452,0,0,1,3.322.766c.852.851.341,2.726-.681,3.322l-2.3,1.533c.937,1.022,2.555,3.151,2.555,7.921.085,4.173.085,8.347.085,12.521H115.592c0-4.173,0-8.347.085-12.521,0-4.77,1.618-6.9,2.556-7.921l-2.3-1.533a2.452,2.452,0,0,1-.766-3.322c1.022-.937,1.959-1.618,3.407-.766l2.215,1.448c1.789-3.322,4.429-9.37,8.688-9.37Zm13.883,35.007v2.129a1.708,1.708,0,0,1-1.7,1.7h-7.751a1.729,1.729,0,0,1-1.789-1.7V257.63H126.836v2.044a1.729,1.729,0,0,1-1.789,1.7H117.3a1.709,1.709,0,0,1-1.7-1.7v-2.129Zm-21.889-3.833a.853.853,0,0,0,.851-.851V250.05a.916.916,0,0,0-.851-.852h-12.1a.916.916,0,0,0-.851.852v2.811a.853.853,0,0,0,.851.851Zm-30.322-8.773c3.492.682,6.984,1.193,10.477,1.959a4.4,4.4,0,0,1,1.873,2.045,3,3,0,0,1,.085,1.533c-3.322-.511-6.643-1.023-9.965-1.618a4.8,4.8,0,0,1-2.555-2.3A3.1,3.1,0,0,1,119.255,244.939Zm48.55,0c-3.493.682-6.984,1.193-10.477,1.959a5.052,5.052,0,0,0-1.959,2.045,4.6,4.6,0,0,0,0,1.533c3.321-.511,6.643-1.023,9.965-1.618a4.8,4.8,0,0,0,2.555-2.3A3.1,3.1,0,0,0,167.8,244.939Z" transform="translate(-114.815 -222.538)" fill="#fff" fill-rule="evenodd"/>
    </g>
    <g id="Group_51" data-name="Group 51" transform="translate(239.357 181.395)">
      <path id="Path_112" data-name="Path 112" d="M307.481,226.708a11,11,0,0,1,3.528,6.1h17.176a28.066,28.066,0,0,0-12.118-20.981Zm-3.739,18.7a10.987,10.987,0,0,1-7.065.006l-8.585,14.872a28.1,28.1,0,0,0,24.236,0l-8.587-14.878Zm-14.33-12.6a11,11,0,0,1,3.529-6.1l-8.586-14.877a28.011,28.011,0,0,0-12.118,20.981Zm10.8-4.51a6.679,6.679,0,1,0,6.68,6.678,6.659,6.659,0,0,0-6.68-6.678Z" transform="translate(-272.237 -211.831)" fill="#fff"/>
    </g>
    <path id="Path_113" data-name="Path 113" d="M482.648,237.746a24.05,24.05,0,0,0-40.24-15.859,19.588,19.588,0,0,1,6.842-1.233,19.269,19.269,0,0,1,18.772,17.091h-6.7l13.936,13.938,13.936-13.936Z" transform="translate(-66.235 -31.166)" fill="#fff"/>
    <path id="Path_114" data-name="Path 114" d="M445.791,244.519h6.7l-13.936-13.938-13.936,13.935h6.543a24.05,24.05,0,0,0,40.24,15.86,19.593,19.593,0,0,1-6.842,1.232A19.267,19.267,0,0,1,445.791,244.519Z" transform="translate(-62.749 -34.112)" fill="#fff"/>
    <path id="Path_115" data-name="Path 115" d="M628.306,221.15h-.978v-4.405a4.261,4.261,0,0,0-2.8-3.813s-5.028-1.571-17.755-1.571-17.754,1.571-17.754,1.571a4.262,4.262,0,0,0-2.8,3.813v4.405h-.979a2.455,2.455,0,0,0-2.447,2.447v5.874a2.455,2.455,0,0,0,2.447,2.447h.979v22.025h1.468v.979a4.405,4.405,0,0,0,8.811,0v-.979h20.557v.979a4.405,4.405,0,1,0,8.81,0v-.979h1.469V231.919h.978a2.455,2.455,0,0,0,2.447-2.447V223.6A2.455,2.455,0,0,0,628.306,221.15ZM599.428,214.3h14.684v3.915H599.428Zm-7.342,36.22a2.447,2.447,0,1,1,2.447-2.447A2.448,2.448,0,0,1,592.086,250.518Zm-1.958-10.769v-18.6h33.283v18.6Zm31.326,10.769a2.447,2.447,0,1,1,2.447-2.447A2.448,2.448,0,0,1,621.454,250.518Z" transform="translate(-93.751 -30.344)" fill="#fff"/>
    <g id="Group_52" data-name="Group 52" transform="translate(617.383 176.127)">
      <path id="Path_116" data-name="Path 116" d="M762.033,205.279l16.053,25.53a21.865,21.865,0,0,1,1.255,2.162,17.829,17.829,0,0,1,2.13,8.431c0,10.261-8.74,18.58-19.523,18.58s-19.522-8.319-19.522-18.58a17.857,17.857,0,0,1,2.124-8.429l.008-.007a17.3,17.3,0,0,1,1.106-1.977Zm11.9,32.032c-.84,3.977-1.569,5.371-4.043,7.935-1.793,1.635-4,1.631-5.036,3.413-1.913,3.662,2.024,5.512,5.613,4.41,1.951-.6,4.72-4.022,5.612-6.477a14.872,14.872,0,0,0,.94-8.813,15.64,15.64,0,0,0-3.1-6.876,22.585,22.585,0,0,1,.01,6.408Z" transform="translate(-742.425 -205.279)" fill="#fff" fill-rule="evenodd"/>
    </g>
  </g>
</svg>
